<?xml version="1.0" encoding="UTF-8"?>
<svg id="Capa_6" data-name="Capa 6" xmlns="http://www.w3.org/2000/svg" xmlns:xlink="http://www.w3.org/1999/xlink" viewBox="0 0 416.94 111.75">
  <defs>
    <style>
      .cls-1 {
        letter-spacing: -.01em;
      }

      .cls-2, .cls-3, .cls-4 {
        fill: #fff;
      }

      .cls-5 {
        fill: #374386;
      }

      .cls-6 {
        fill: #c44069;
      }

      .cls-7 {
        letter-spacing: 0em;
      }

      .cls-8 {
        letter-spacing: 0em;
      }

      .cls-9 {
        letter-spacing: 0em;
      }

      .cls-10 {
        letter-spacing: 0em;
      }

      .cls-11 {
        filter: url(#drop-shadow-1);
      }

      .cls-12 {
        clip-path: url(#clippath-1);
      }

      .cls-13 {
        fill: #c13964;
      }

      .cls-14 {
        letter-spacing: 0em;
      }

      .cls-15 {
        fill: #e1cc60;
      }

      .cls-16 {
        letter-spacing: 0em;
      }

      .cls-17 {
        fill: #4e5395;
      }

      .cls-18 {
        clip-path: url(#clippath);
      }

      .cls-19 {
        fill: none;
      }

      .cls-3 {
        font-size: 26px;
      }

      .cls-3, .cls-4 {
        font-family: Montserrat-Bold, Montserrat;
        font-weight: 700;
      }

      .cls-20 {
        fill: #a51e38;
      }

      .cls-21 {
        fill: #3f3d72;
      }

      .cls-4 {
        font-size: 18px;
      }
    </style>
    <clipPath id="clippath">
      <rect class="cls-19" x=".51" y="10.87" width="415.92" height="100.87"/>
    </clipPath>
    <filter id="drop-shadow-1" filterUnits="userSpaceOnUse">
      <feOffset dx="3" dy="3"/>
      <feGaussianBlur result="blur" stdDeviation="3"/>
      <feFlood flood-color="#000" flood-opacity=".45"/>
      <feComposite in2="blur" operator="in"/>
      <feComposite in="SourceGraphic"/>
    </filter>
    <clipPath id="clippath-1">
      <polygon class="cls-19" points="416.43 111.73 0 111.73 0 10.87 415.92 10.87 416.43 111.73"/>
    </clipPath>
  </defs>
  <rect class="cls-20" x=".51" y="11.09" width="415.51" height="37.14"/>
  <g class="cls-18">
    <g class="cls-11">
      <g class="cls-12">
        <g>
          <g>
            <rect class="cls-21" y="48.18" width="415.92" height="63.1"/>
            <g>
              <g>
                <g>
                  <rect class="cls-5" x="47.23" y="33.48" width="95.97" height="73.14" rx="2.54" ry="2.54" transform="translate(-4.89 7.19) rotate(-4.21)"/>
                  <g>
                    <rect class="cls-17" x="43.11" y="31.85" width="99.47" height="12.02" rx=".37" ry=".37" transform="translate(-2.53 6.93) rotate(-4.21)"/>
                    <g>
                      <path class="cls-2" d="m55.53,46.64l3.23-.24c-4.24-3.71-8.49-7.42-12.75-11.11l-3.12.23c4.21,3.71,8.43,7.41,12.64,11.12Z"/>
                      <path class="cls-2" d="m69.55,45.6l3.23-.24c-4.24-3.71-8.49-7.42-12.75-11.11l-3.12.23c4.21,3.71,8.43,7.41,12.64,11.12Z"/>
                      <path class="cls-2" d="m83.57,44.57l3.23-.24c-4.24-3.71-8.49-7.42-12.75-11.11l-3.12.23c4.21,3.71,8.43,7.41,12.64,11.12Z"/>
                      <path class="cls-2" d="m97.59,43.54l3.23-.24c-4.24-3.71-8.49-7.42-12.75-11.11l-3.12.23c4.21,3.71,8.43,7.41,12.64,11.12Z"/>
                      <path class="cls-2" d="m111.61,42.5l3.23-.24c-4.24-3.71-8.49-7.42-12.75-11.11l-3.12.23c4.21,3.71,8.43,7.41,12.64,11.12Z"/>
                      <path class="cls-2" d="m125.63,41.47l3.23-.24c-4.24-3.71-8.49-7.42-12.75-11.11l-3.12.23c4.21,3.71,8.43,7.41,12.64,11.12Z"/>
                      <path class="cls-2" d="m139.72,40.43l2.82-.21c.13,0,.18-.17.08-.25-4.14-3.62-8.29-7.24-12.44-10.84-.03-.03-.07-.04-.11-.04l-3.06.23c4.2,3.69,8.4,7.39,12.6,11.08.03.03.07.04.11.04Z"/>
                    </g>
                  </g>
                  <g>
                    <path class="cls-17" d="m43.52,35.35l95.17-23.67c.39-.1.63-.5.53-.89l-2.62-10.22c-.1-.39-.49-.62-.88-.53L40.56,23.71c-.39.1-.63.5-.53.89l2.62,10.22c.1.39.49.62.88.53Z"/>
                    <g>
                      <path class="cls-2" d="m127.88,14.37l-3.14.78c2.85-4.84,5.71-9.68,8.58-14.51L135.86,0c.18-.05.33.15.24.32-2.74,4.68-5.48,9.36-8.22,14.04Z"/>
                      <path class="cls-2" d="m114.23,17.76l-3.14.78c2.85-4.84,5.71-9.68,8.58-14.51l3.04-.76c-2.82,4.83-5.65,9.66-8.47,14.48Z"/>
                      <path class="cls-2" d="m100.58,21.16l-3.14.78c2.85-4.84,5.71-9.68,8.58-14.51l3.04-.76c-2.82,4.83-5.65,9.66-8.47,14.48Z"/>
                      <path class="cls-2" d="m86.92,24.55l-3.14.78c2.85-4.84,5.71-9.68,8.58-14.51l3.04-.76c-2.82,4.83-5.65,9.66-8.47,14.48Z"/>
                      <path class="cls-2" d="m73.27,27.95l-3.14.78c2.85-4.84,5.71-9.68,8.58-14.51l3.04-.76c-2.82,4.83-5.65,9.66-8.47,14.48Z"/>
                      <path class="cls-2" d="m59.62,31.34l-3.14.78c2.85-4.84,5.71-9.68,8.58-14.51l3.04-.76c-2.82,4.83-5.65,9.66-8.47,14.48Z"/>
                      <path class="cls-2" d="m45.96,34.74l-3.14.78c2.85-4.84,5.71-9.68,8.58-14.51l3.04-.76c-2.82,4.83-5.65,9.66-8.47,14.48Z"/>
                    </g>
                  </g>
                  <g>
                    <g>
                      <path class="cls-2" d="m59.43,79c21.11-1.56,42.23-3.11,63.34-4.67,3.05-.22,6.1-.45,9.15-.67.78-.06.69-1.27-.09-1.21-21.11,1.56-42.23,3.11-63.34,4.67-3.05.22-6.1.45-9.15.67-.78.06-.69,1.27.09,1.21h0Z"/>
                      <path class="cls-2" d="m59.89,85.15c21.11-1.56,42.23-3.11,63.34-4.67,3.05-.22,6.1-.45,9.15-.67.78-.06.69-1.27-.09-1.21-21.11,1.56-42.23,3.11-63.34,4.67-3.05.22-6.1.45-9.15.67-.78.06-.69,1.27.09,1.21h0Z"/>
                      <path class="cls-2" d="m60.34,91.31c21.11-1.56,42.23-3.11,63.34-4.67,3.05-.22,6.1-.45,9.15-.67.78-.06.69-1.27-.09-1.21-21.11,1.56-42.23,3.11-63.34,4.67-3.05.22-6.1.45-9.15.67-.78.06-.69,1.27.09,1.21h0Z"/>
                      <path class="cls-2" d="m60.8,97.47c21.11-1.56,42.23-3.11,63.34-4.67,3.05-.22,6.1-.45,9.15-.67.78-.06.69-1.27-.09-1.21-21.11,1.56-42.23,3.11-63.34,4.67-3.05.22-6.1.45-9.15.67-.78.06-.69,1.27.09,1.21h0Z"/>
                    </g>
                    <g>
                      <g>
                        <path class="cls-2" d="m57.82,57.07c21.11-1.56,42.23-3.11,63.34-4.67,3.05-.22,6.1-.45,9.15-.67.78-.06.69-1.27-.09-1.21-21.11,1.56-42.23,3.11-63.34,4.67-3.05.22-6.1.45-9.15.67-.78.06-.69,1.27.09,1.21h0Z"/>
                        <path class="cls-2" d="m58.72,69.29c21.11-1.56,42.23-3.11,63.34-4.67,3.05-.22,6.1-.45,9.15-.67.78-.06.69-1.27-.09-1.21-21.11,1.56-42.23,3.11-63.34,4.67-3.05.22-6.1.45-9.15.67-.78.06-.69,1.27.09,1.21h0Z"/>
                      </g>
                      <g>
                        <path class="cls-2" d="m73.66,55.3c.3,4.07.6,8.15.9,12.22.06.78,1.27.69,1.21-.09-.3-4.07-.6-8.15-.9-12.22-.06-.78-1.27-.69-1.21.09h0Z"/>
                        <path class="cls-2" d="m93.4,53.72l.9,12.22c.06.78,1.27.69,1.21-.09-.3-4.07-.6-8.15-.9-12.22-.06-.78-1.27-.69-1.21.09h0Z"/>
                        <path class="cls-2" d="m113.17,52.38l.9,12.22c.06.78,1.27.69,1.21-.09-.3-4.07-.6-8.15-.9-12.22-.06-.78-1.27-.69-1.21.09h0Z"/>
                      </g>
                    </g>
                  </g>
                </g>
                <g>
                  <path class="cls-5" d="m55.84,40.85l-8.35.62c-1.37.1-2.56-.93-2.66-2.3l-.56-7.55c-.16-2.15,2.31-3.47,4.01-2.15l8.91,6.93c1.8,1.4.93,4.28-1.35,4.45Z"/>
                  <g>
                    <path class="cls-15" d="m45.74,32.08c-.05-.75.5-1.39,1.25-1.45.75-.05,1.39.5,1.45,1.25.05.75-.5,1.39-1.25,1.45-.75.05-1.39-.5-1.45-1.25Z"/>
                    <path class="cls-15" d="m46.24,38.8c-.05-.75.5-1.39,1.25-1.45.75-.05,1.39.5,1.45,1.25.05.75-.5,1.39-1.25,1.45-.75.05-1.39-.5-1.45-1.25Z"/>
                    <path class="cls-15" d="m53.7,38.25c-.05-.75.5-1.39,1.25-1.45.75-.05,1.39.5,1.45,1.25.05.75-.5,1.39-1.25,1.45-.75.05-1.39-.5-1.45-1.25Z"/>
                  </g>
                </g>
              </g>
              <g>
                <g>
                  <path class="cls-17" d="m175.52,38.74c-.81-.39-1.17-1.37-.92-2.24l7.03-24.65c.22-.77.91-1.32,1.72-1.36l12.84-.57c.9-.04,1.23.7,1.35,1.6.18,1.32.02,1.99-1.09,2.04l-11.63.51s-.04.01-.04.03l-6.69,23.48c-.31,1.07-1.51,1.65-2.56,1.14Z"/>
                  <path class="cls-5" d="m197.35,11.58c.09.79-.11,1.46-.47,1.51-.35.04-.71-.56-.81-1.35-.09-.79.11-1.46.47-1.51.35-.04.71.56.81,1.35Z"/>
                </g>
                <g>
                  <g>
                    <rect class="cls-2" x="172.69" y="20.07" width="4.12" height="40.43" transform="translate(88.11 197.29) rotate(-74.09)"/>
                    <path class="cls-2" d="m192.28,43.14l-33.94-9.68h0c.43-1.52,2.01-2.4,3.53-1.97l28.45,8.11c1.52.43,2.4,2.01,1.97,3.53h0Z"/>
                  </g>
                  <g>
                    <polygon class="cls-13" points="169.42 106.97 143.97 99.71 157.59 37.53 190.78 46.99 169.42 106.97"/>
                    <g>
                      <polygon class="cls-6" points="189.4 50.87 189.79 49.77 187.76 46.13 186.57 45.79 189.4 50.87"/>
                      <polygon class="cls-6" points="187.44 56.36 187.83 55.27 181.8 44.43 180.61 44.09 187.44 56.36"/>
                      <polygon class="cls-6" points="179.17 60.15 179.17 60.15 183.39 67.74 183.92 66.26 169.89 41.03 168.27 40.57 179.17 60.15"/>
                      <polygon class="cls-6" points="182.99 58.02 182.99 58.02 185.35 62.25 185.88 60.76 175.85 42.73 174.23 42.27 182.99 58.02"/>
                      <polygon class="cls-6" points="156.24 98.88 147.57 83.29 147.28 84.58 157.91 103.69 159.1 104.03 156.24 98.88 156.24 98.88"/>
                      <polygon class="cls-6" points="152.41 101.01 152.41 101.01 146.15 89.76 145.87 91.05 151.95 101.99 153.15 102.33 152.41 101.01"/>
                      <polygon class="cls-6" points="165.49 105.85 149.31 76.76 149.31 76.76 149.08 76.36 148.7 78.12 163.33 104.41 163.33 104.41 163.87 105.39 165.49 105.85"/>
                      <polygon class="cls-6" points="172.04 99.61 156.96 72.5 156.96 72.5 151.92 63.43 151.53 65.18 166.96 92.91 166.96 92.91 171.51 101.1 172.04 99.61"/>
                      <polygon class="cls-6" points="172.28 63.99 172.28 63.99 157.58 37.57 157.29 38.86 171.51 64.41 171.51 64.41 179.48 78.73 179.87 77.63 172.28 63.99"/>
                      <polygon class="cls-6" points="181.96 71.75 163.93 39.34 162.32 38.87 175.34 62.28 175.34 62.28 181.43 73.24 181.96 71.75"/>
                      <polygon class="cls-6" points="164.62 68.24 154.75 50.5 154.46 51.79 163.85 68.67 163.85 68.67 175.56 89.72 175.96 88.62 164.62 68.24 164.62 68.24"/>
                      <polygon class="cls-6" points="168.45 66.11 156.16 44.03 155.88 45.33 167.68 66.54 167.68 66.54 177.52 84.23 177.91 83.13 168.45 66.11 168.45 66.11"/>
                      <polygon class="cls-6" points="153.13 74.63 153.13 74.63 150.5 69.9 150.12 71.65 167.16 102.28 167.16 102.28 169.56 106.6 170.09 105.11 153.13 74.63"/>
                      <polygon class="cls-6" points="144.45 97.52 146 100.29 147.19 100.63 144.74 96.22 144.45 97.52"/>
                      <polygon class="cls-6" points="160.03 70.8 160.03 70.8 173.61 95.22 174 94.12 160.79 70.37 160.79 70.37 153.33 56.96 153.05 58.26 160.03 70.8"/>
                    </g>
                  </g>
                </g>
              </g>
            </g>
          </g>
          <g>
            <g>
              <polygon class="cls-2" points="194.19 26.8 196.51 31.52 201.72 32.28 197.95 35.95 198.84 41.14 194.19 38.69 189.53 41.14 190.42 35.95 186.65 32.28 191.86 31.52 194.19 26.8"/>
              <polygon class="cls-2" points="181.68 72.62 185.76 75.95 190.81 74.48 188.91 79.39 191.86 83.74 186.61 83.44 183.39 87.6 182.05 82.51 177.09 80.73 181.52 77.88 181.68 72.62"/>
              <polygon class="cls-2" points="183.16 51.71 184.42 54.26 187.24 54.68 185.2 56.67 185.68 59.48 183.16 58.15 180.63 59.48 181.11 56.67 179.07 54.68 181.89 54.26 183.16 51.71"/>
              <polygon class="cls-2" points="173.01 22.91 174.27 25.47 177.09 25.88 175.05 27.88 175.53 30.69 173.01 29.36 170.48 30.69 170.96 27.88 168.92 25.88 171.75 25.47 173.01 22.91"/>
              <polygon class="cls-2" points="210.13 86.48 211.49 87.69 213.26 87.25 212.53 88.92 213.49 90.47 211.68 90.29 210.5 91.68 210.11 89.91 208.42 89.22 209.99 88.3 210.13 86.48"/>
              <polygon class="cls-2" points="215 61.22 215.95 66.77 221.06 69.13 216.07 71.75 215.41 77.34 211.38 73.41 205.85 74.5 208.35 69.46 205.6 64.54 211.17 65.35 215 61.22"/>
            </g>
            <g>
              <polygon class="cls-2" points="25.18 24.93 22.97 29.42 18.01 30.14 21.6 33.64 20.75 38.57 25.18 36.24 29.61 38.57 28.77 33.64 32.35 30.14 27.4 29.42 25.18 24.93"/>
              <polygon class="cls-2" points="23.74 91.1 19.86 94.27 15.05 92.87 16.87 97.53 14.05 101.67 19.05 101.39 22.12 105.35 23.39 100.51 28.1 98.81 23.89 96.1 23.74 91.1"/>
              <polygon class="cls-2" points="12.92 12.34 11.72 14.77 9.03 15.16 10.97 17.06 10.51 19.73 12.92 18.47 15.32 19.73 14.86 17.06 16.8 15.16 14.12 14.77 12.92 12.34"/>
              <polygon class="cls-2" points="41.98 14.55 40.78 16.99 38.1 17.38 40.04 19.27 39.58 21.95 41.98 20.68 44.39 21.95 43.93 19.27 45.87 17.38 43.18 16.99 41.98 14.55"/>
              <polygon class="cls-2" points="13.71 79.6 12.41 80.75 10.73 80.33 11.42 81.92 10.51 83.39 12.23 83.22 13.35 84.55 13.72 82.85 15.33 82.2 13.83 81.32 13.71 79.6"/>
              <polygon class="cls-2" points="51.16 29.28 49.87 30.43 48.19 30.01 48.88 31.6 47.96 33.07 49.69 32.9 50.81 34.23 51.18 32.53 52.78 31.88 51.29 31 51.16 29.28"/>
              <polygon class="cls-2" points="9.07 55.57 8.17 60.85 3.31 63.09 8.05 65.59 8.68 70.9 12.52 67.16 17.77 68.2 15.4 63.4 18.01 58.72 12.71 59.5 9.07 55.57"/>
            </g>
          </g>
        </g>
      </g>
      <g>
        <text class="cls-3" transform="translate(228.39 72.88)"><tspan class="cls-8" x="0" y="0">P</tspan><tspan class="cls-16" x="18.77" y="0">r</tspan><tspan class="cls-14" x="29.74" y="0">o</tspan><tspan class="cls-10" x="46.77" y="0">m</tspan><tspan x="74.15" y="0">o</tspan><tspan class="cls-9" x="91.18" y="0">c</tspan><tspan x="106.44" y="0">ión</tspan></text>
        <text class="cls-4" transform="translate(206.97 41.05)"><tspan x="0" y="0">DIS</tspan><tspan class="cls-1" x="32.25" y="0">C</tspan><tspan class="cls-7" x="45.18" y="0">OUNT </tspan><tspan class="cls-1" x="105.32" y="0">C</tspan><tspan class="cls-7" x="118.24" y="0">OUPON</tspan></text>
      </g>
    </g>
  </g>
</svg>