<?xml version="1.0" encoding="UTF-8"?>
<svg id="OBJECTS_1" data-name="OBJECTS 1" xmlns="http://www.w3.org/2000/svg" xmlns:xlink="http://www.w3.org/1999/xlink" viewBox="0 0 416.94 111.75">
  <defs>
    <style>
      .cls-1 {
        font-family: Montserrat-Bold, Montserrat;
        font-size: 21.26px;
      }

      .cls-1, .cls-2, .cls-3 {
        fill: #fff;
      }

      .cls-1, .cls-4 {
        font-weight: 700;
      }

      .cls-5 {
        letter-spacing: 0em;
      }

      .cls-6 {
        letter-spacing: -.01em;
      }

      .cls-7 {
        fill: #374386;
      }

      .cls-8 {
        letter-spacing: -.02em;
      }

      .cls-3 {
        font-family: Montserrat-Regular, Montserrat;
        font-size: 6.03px;
      }

      .cls-9 {
        letter-spacing: 0em;
      }

      .cls-10 {
        fill: none;
        stroke: #404a90;
        stroke-miterlimit: 10;
        stroke-width: .94px;
      }

      .cls-11 {
        filter: url(#drop-shadow-1);
      }

      .cls-12 {
        letter-spacing: -.02em;
      }

      .cls-13 {
        letter-spacing: -.01em;
      }

      .cls-4 {
        font-family: Oswald-Bold, Oswald;
        font-size: 4.41px;
      }

      .cls-4, .cls-14 {
        fill: #c13964;
      }

      .cls-15 {
        letter-spacing: 0em;
      }

      .cls-16 {
        letter-spacing: -.05em;
      }

      .cls-17 {
        letter-spacing: 0em;
      }

      .cls-18 {
        letter-spacing: 0em;
      }

      .cls-19 {
        fill: #8888b8;
      }

      .cls-20 {
        letter-spacing: 0em;
      }

      .cls-21 {
        letter-spacing: 0em;
      }

      .cls-22 {
        letter-spacing: -.01em;
      }

      .cls-23 {
        fill: #efc143;
      }

      .cls-24 {
        letter-spacing: 0em;
      }

      .cls-25 {
        fill: #4e5395;
      }

      .cls-26 {
        letter-spacing: 0em;
      }

      .cls-27 {
        fill: #6f70a8;
      }

      .cls-28 {
        letter-spacing: -.05em;
      }

      .cls-29 {
        letter-spacing: 0em;
      }

      .cls-30 {
        letter-spacing: 0em;
      }

      .cls-31 {
        fill: #a51e38;
      }

      .cls-32 {
        letter-spacing: 0em;
      }

      .cls-33 {
        fill: #3f3d72;
      }

      .cls-34 {
        letter-spacing: -.02em;
      }

      .cls-35 {
        letter-spacing: 0em;
      }
    </style>
    <filter id="drop-shadow-1" filterUnits="userSpaceOnUse">
      <feOffset dx="3" dy="3"/>
      <feGaussianBlur result="blur" stdDeviation="3"/>
      <feFlood flood-color="#000" flood-opacity=".45"/>
      <feComposite in2="blur" operator="in"/>
      <feComposite in="SourceGraphic"/>
    </filter>
  </defs>
  <g>
    <g>
      <rect class="cls-31" x="1.01" y="11.05" width="415.92" height="100.41"/>
      <polygon class="cls-33" points="189.61 111.75 .51 111.75 .51 11.19 175.19 11.19 264.04 61.72 264.04 75.99 189.61 111.75"/>
      <polygon class="cls-23" points=".51 94.04 .51 111.75 199.78 111.75 226.47 94.04 .51 94.04"/>
    </g>
    <g>
      <g>
        <g>
          <g>
            <line class="cls-10" x1="344.93" y1="43.48" x2="334.3" y2="62.12"/>
            <line class="cls-10" x1="335.52" y1="25.55" x2="294.11" y2="18.48"/>
            <line class="cls-10" x1="283.27" y1="35.29" x2="291.35" y2="56.15"/>
          </g>
          <g>
            <circle class="cls-7" cx="335.8" cy="36.74" r="12.11" transform="translate(72.37 248.21) rotate(-45)"/>
            <g>
              <path class="cls-2" d="m318.94,37.05c0,9.14,7.41,16.55,16.55,16.55s16.55-7.41,16.55-16.55-7.41-16.55-16.55-16.55-16.55,7.41-16.55,16.55Zm11.91-2.66c-1.23,2.14-5.2,2.16-6.94,1.16s-2.15-3.54-.92-5.68c1.23-2.14,3.63-3.06,5.37-2.06,1.74,1,3.72,4.44,2.49,6.58Zm9.1-8.12c0,2-2,5.44-4.46,5.44s-4.46-3.44-4.46-5.44,2-3.63,4.46-3.63,4.46,1.62,4.46,3.63Zm7.09,9.15c-1.72,1.02-5.7,1.04-6.95-1.08-1.25-2.12.69-5.59,2.42-6.61,1.72-1.02,4.14-.12,5.39,2,1.25,2.12.87,4.67-.86,5.69Zm-6.91,4.27c1.22-2.14,5.19-2.18,6.93-1.2s2.17,3.53.95,5.67c-1.22,2.14-3.61,3.08-5.36,2.09-1.74-.99-3.74-4.42-2.53-6.57Zm-9.05,8.17c-.01-2,1.97-5.45,4.43-5.46,2.46-.01,4.48,3.41,4.49,5.41.01,2-1.98,3.64-4.44,3.65-2.46.01-4.47-1.6-4.48-3.6Zm-7.16-9.24c1.73-1.01,5.71-1.01,6.95,1.12,1.24,2.13-.72,5.59-2.45,6.59-1.73,1.01-4.14.1-5.38-2.03-1.24-2.13-.84-4.67.89-5.68Z"/>
              <g>
                <path class="cls-27" d="m337.58,39.14c1.15-1.15,1.15-3.03,0-4.18-1.15-1.15-3.03-1.15-4.18,0-1.15,1.15-1.15,3.03,0,4.18s3.03,1.15,4.18,0Z"/>
                <path class="cls-19" d="m337.35,37.05c0-1.03-.83-1.86-1.86-1.86s-1.86.83-1.86,1.86.83,1.86,1.86,1.86,1.86-.83,1.86-1.86Z"/>
              </g>
            </g>
          </g>
          <g>
            <circle class="cls-7" cx="293.69" cy="29.63" r="12.11"/>
            <g>
              <path class="cls-2" d="m276.83,29.94c0,9.14,7.41,16.55,16.55,16.55s16.55-7.41,16.55-16.55-7.41-16.55-16.55-16.55-16.55,7.41-16.55,16.55Zm11.91-2.66c-1.23,2.14-5.2,2.16-6.94,1.16-1.74-1-2.15-3.54-.92-5.68s3.63-3.06,5.37-2.06c1.74,1,3.72,4.44,2.49,6.58Zm9.1-8.12c0,2-2,5.44-4.46,5.44s-4.46-3.44-4.46-5.44,2-3.63,4.46-3.63,4.46,1.62,4.46,3.63Zm7.09,9.15c-1.72,1.02-5.7,1.04-6.95-1.08-1.25-2.12.69-5.59,2.42-6.61,1.72-1.02,4.14-.12,5.39,2,1.25,2.12.87,4.67-.86,5.69Zm-6.91,4.27c1.22-2.14,5.19-2.18,6.93-1.2,1.74.99,2.17,3.53.95,5.67-1.22,2.14-3.61,3.08-5.36,2.09s-3.74-4.42-2.53-6.57Zm-9.05,8.17c-.01-2,1.97-5.45,4.43-5.46,2.46-.01,4.48,3.41,4.49,5.41.01,2-1.98,3.64-4.44,3.65-2.46.01-4.47-1.6-4.48-3.6Zm-7.16-9.24c1.73-1.01,5.7-1.01,6.95,1.12,1.24,2.13-.72,5.59-2.45,6.59-1.73,1.01-4.14.1-5.38-2.03-1.24-2.13-.84-4.67.89-5.68Z"/>
              <g>
                <path class="cls-27" d="m295.47,32.03c1.15-1.15,1.15-3.03,0-4.18-1.15-1.15-3.03-1.15-4.18,0-1.15,1.15-1.15,3.03,0,4.18,1.15,1.15,3.03,1.15,4.18,0Z"/>
                <path class="cls-19" d="m295.24,29.94c0-1.03-.83-1.86-1.86-1.86s-1.86.83-1.86,1.86.83,1.86,1.86,1.86,1.86-.83,1.86-1.86Z"/>
              </g>
            </g>
          </g>
        </g>
        <g>
          <rect class="cls-7" x="312.55" y="82.28" width="2" height="27.62"/>
          <g>
            <polygon class="cls-7" points="299.04 109.9 310.08 82.28 312.28 82.28 301.24 109.9 299.04 109.9"/>
            <polygon class="cls-7" points="325.86 109.9 314.81 82.28 317.01 82.28 328.05 109.9 325.86 109.9"/>
          </g>
        </g>
        <g>
          <path class="cls-25" d="m311.15,61.43h0c1.44,1.44,3.78,1.44,5.22,0l21.72-21.72c1.44-1.44,1.44-3.78,0-5.22h0c-1.44-1.44-3.78-1.44-5.22,0l-21.72,21.72c-1.44,1.44-1.44,3.78,0,5.22Z"/>
          <path class="cls-25" d="m313.12,58.61h0c1.69-1.15,2.12-3.44.97-5.13l-17.29-25.39c-1.15-1.69-3.44-2.12-5.13-.97h0c-1.69,1.15-2.12,3.44-.97,5.13l17.29,25.39c1.15,1.69,3.44,2.12,5.13.97Z"/>
        </g>
        <g>
          <g>
            <rect class="cls-7" x="283.2" y="60.06" width="6.2" height="14.22"/>
            <rect class="cls-2" x="281.01" y="58.86" width="2.18" height="16.62"/>
          </g>
          <g>
            <rect class="cls-7" x="336.9" y="64.17" width="10.88" height="5.99"/>
            <rect class="cls-2" x="347.78" y="62.93" width="1.5" height="8.47"/>
            <rect class="cls-23" x="349.27" y="64.17" width="1.9" height="5.99"/>
          </g>
          <g>
            <rect class="cls-25" x="289.4" y="54.19" width="47.5" height="25.95"/>
            <rect class="cls-2" x="303.97" y="80.14" width="18.36" height="2.64"/>
          </g>
        </g>
        <path class="cls-23" d="m338.12,37.09c0-1.43-1.16-2.6-2.6-2.6s-2.6,1.16-2.6,2.6,1.16,2.6,2.6,2.6,2.6-1.16,2.6-2.6Z"/>
        <path class="cls-23" d="m296.19,29.94c0-1.43-1.16-2.6-2.6-2.6s-2.6,1.16-2.6,2.6,1.16,2.6,2.6,2.6,2.6-1.16,2.6-2.6Z"/>
        <path class="cls-23" d="m332.41,73.79c0-1.27-1.03-2.3-2.3-2.3s-2.3,1.03-2.3,2.3,1.03,2.3,2.3,2.3,2.3-1.03,2.3-2.3Z"/>
        <path class="cls-23" d="m299.04,73.79c0-1.27-1.03-2.3-2.3-2.3s-2.3,1.03-2.3,2.3,1.03,2.3,2.3,2.3,2.3-1.03,2.3-2.3Z"/>
        <path class="cls-23" d="m332.41,59.24c0-1.27-1.03-2.3-2.3-2.3s-2.3,1.03-2.3,2.3,1.03,2.3,2.3,2.3,2.3-1.03,2.3-2.3Z"/>
        <path class="cls-23" d="m299.04,59.24c0-1.27-1.03-2.3-2.3-2.3s-2.3,1.03-2.3,2.3,1.03,2.3,2.3,2.3,2.3-1.03,2.3-2.3Z"/>
      </g>
      <g>
        <g>
          <path class="cls-23" d="m313.15,73.1c-3.32,0-6.03-2.7-6.03-6.03s2.7-6.03,6.03-6.03,6.03,2.7,6.03,6.03-2.7,6.03-6.03,6.03Z"/>
          <path class="cls-14" d="m304.84,67.07c0,4.58,3.73,8.31,8.31,8.31s8.31-3.73,8.31-8.31-3.73-8.31-8.31-8.31-8.31,3.73-8.31,8.31Zm14.34,0c0,3.32-2.7,6.03-6.03,6.03s-6.03-2.7-6.03-6.03,2.7-6.03,6.03-6.03,6.03,2.7,6.03,6.03Z"/>
        </g>
        <text class="cls-4" transform="translate(308.53 68.45)"><tspan class="cls-22" x="0" y="0">L</tspan><tspan class="cls-29" x="1.9" y="0">OGO</tspan></text>
      </g>
    </g>
    <g>
      <polygon class="cls-2" points="382.49 36.22 385.47 42.26 392.13 43.23 387.31 47.93 388.45 54.57 382.49 51.43 376.52 54.57 377.66 47.93 372.84 43.23 379.5 42.26 382.49 36.22"/>
      <polygon class="cls-2" points="402.11 56.93 403.37 59.49 406.2 59.9 404.15 61.89 404.64 64.7 402.11 63.38 399.59 64.7 400.07 61.89 398.03 59.9 400.85 59.49 402.11 56.93"/>
      <polygon class="cls-2" points="368.97 25.07 370.23 27.63 373.06 28.04 371.01 30.03 371.5 32.84 368.97 31.52 366.45 32.84 366.93 30.03 364.88 28.04 367.71 27.63 368.97 25.07"/>
      <polygon class="cls-2" points="364.88 85.96 366.15 88.52 368.97 88.93 366.93 90.92 367.41 93.73 364.88 92.41 362.36 93.73 362.84 90.92 360.8 88.93 363.62 88.52 364.88 85.96"/>
      <polygon class="cls-2" points="381.17 67.51 383.35 71.93 388.23 72.64 384.7 76.08 385.53 80.95 381.17 78.65 376.8 80.95 377.64 76.08 374.11 72.64 378.99 71.93 381.17 67.51"/>
    </g>
  </g>
  <g class="cls-11">
    <g>
      <text class="cls-3" transform="translate(12.64 86.02)"><tspan x="0" y="0">¡Bie</tspan><tspan class="cls-6" x="11.39" y="0">n</tspan><tspan class="cls-13" x="15.4" y="0">v</tspan><tspan class="cls-5" x="18.58" y="0">enido! Usa el </tspan><tspan class="cls-21" x="58.66" y="0">c</tspan><tspan x="62.01" y="0">ódigo NU</tspan><tspan class="cls-6" x="90.68" y="0">E</tspan><tspan class="cls-12" x="94.66" y="0">V</tspan><tspan class="cls-6" x="98.74" y="0">O</tspan><tspan x="103.75" y="0">10 </tspan><tspan class="cls-35" x="111.5" y="0">p</tspan><tspan class="cls-5" x="115.57" y="0">a</tspan><tspan class="cls-16" x="119.13" y="0">r</tspan><tspan x="121.27" y="0">a ob</tspan><tspan class="cls-8" x="134.28" y="0">t</tspan><tspan x="136.62" y="0">ener un 10% de descuen</tspan><tspan class="cls-34" x="209.62" y="0">t</tspan><tspan x="211.96" y="0">o en tu p</tspan><tspan class="cls-18" x="238.8" y="0">r</tspan><tspan x="241.17" y="0">ime</tspan><tspan class="cls-28" x="252.84" y="0">r</tspan><tspan x="254.97" y="0">a </tspan><tspan class="cls-26" x="260.12" y="0">c</tspan><tspan class="cls-15" x="263.46" y="0">omp</tspan><tspan class="cls-28" x="277.73" y="0">r</tspan><tspan class="cls-17" x="279.87" y="0">a.</tspan></text>
      <text class="cls-1" transform="translate(19.08 64.93)"><tspan class="cls-24" x="0" y="0">P</tspan><tspan class="cls-32" x="15.35" y="0">r</tspan><tspan class="cls-9" x="24.32" y="0">o</tspan><tspan class="cls-20" x="38.24" y="0">m</tspan><tspan class="cls-9" x="60.62" y="0">o</tspan><tspan class="cls-30" x="74.54" y="0">c</tspan><tspan x="87.02" y="0">ión</tspan></text>
    </g>
  </g>
</svg>